<svg width="17" height="16" viewBox="0 0 17 16" fill="none" xmlns="http://www.w3.org/2000/svg">
<g id="Instagram">
<g id="Vector">
<path d="M14.7552 5.25329C14.7239 4.54484 14.6094 4.05778 14.4452 3.63574C14.2759 3.18776 14.0155 2.78668 13.6742 2.45326C13.3408 2.11465 12.9371 1.85154 12.4943 1.68488C12.0698 1.52077 11.5853 1.4062 10.8768 1.37497C10.1631 1.34109 9.93652 1.33325 8.12627 1.33325C6.31603 1.33325 6.08944 1.34109 5.37834 1.37232C4.66989 1.40356 4.18284 1.51822 3.7609 1.68224C3.31282 1.85154 2.91174 2.11201 2.57832 2.45326C2.23971 2.78668 1.9767 3.19041 1.80994 3.6332C1.64583 4.05778 1.53126 4.54219 1.50003 5.25064C1.46615 5.96438 1.45831 6.19097 1.45831 8.00122C1.45831 9.81147 1.46615 10.0381 1.49738 10.7492C1.52862 11.4576 1.64329 11.9447 1.8074 12.3667C1.9767 12.8147 2.23971 13.2158 2.57832 13.5492C2.91174 13.8878 3.31546 14.1509 3.75826 14.3176C4.18284 14.4817 4.66725 14.5962 5.3758 14.6275C6.08679 14.6588 6.31348 14.6665 8.12373 14.6665C9.93398 14.6665 10.1606 14.6588 10.8717 14.6275C11.5801 14.5962 12.0672 14.4817 12.4891 14.3176C13.3852 13.9711 14.0936 13.2627 14.4401 12.3667C14.6041 11.9421 14.7187 11.4576 14.75 10.7492C14.7812 10.0381 14.789 9.81147 14.789 8.00122C14.789 6.19097 14.7864 5.96438 14.7552 5.25329ZM13.5545 10.6971C13.5258 11.3482 13.4164 11.6999 13.3252 11.9343C13.1012 12.5151 12.6402 12.9761 12.0593 13.2002C11.8249 13.2914 11.4707 13.4007 10.8221 13.4293C10.1188 13.4607 9.90793 13.4684 8.12892 13.4684C6.34991 13.4684 6.13634 13.4607 5.43563 13.4293C4.78446 13.4007 4.43283 13.2914 4.19841 13.2002C3.90935 13.0934 3.64624 12.9241 3.43267 12.7027C3.21128 12.4865 3.04197 12.226 2.93514 11.9369C2.84398 11.7025 2.7346 11.3482 2.70601 10.6997C2.67467 9.99644 2.66694 9.78542 2.66694 8.00641C2.66694 6.2274 2.67467 6.01383 2.70601 5.31322C2.7346 4.66205 2.84398 4.31042 2.93514 4.076C3.04197 3.78684 3.21128 3.52382 3.43532 3.31016C3.65143 3.08876 3.91189 2.91946 4.20105 2.81273C4.43547 2.72156 4.78975 2.61219 5.43827 2.5835C6.14153 2.55226 6.35255 2.54443 8.13146 2.54443C9.91312 2.54443 10.124 2.55226 10.8248 2.5835C11.4759 2.61219 11.8276 2.72156 12.062 2.81273C12.351 2.91946 12.6141 3.08876 12.8277 3.31016C13.0491 3.52637 13.2184 3.78684 13.3252 4.076C13.4164 4.31042 13.5258 4.66459 13.5545 5.31322C13.5857 6.01648 13.5935 6.2274 13.5935 8.00641C13.5935 9.78542 13.5857 9.9938 13.5545 10.6971Z" fill="white"/>
<path d="M8.12627 4.57607C6.23534 4.57607 4.70112 6.11019 4.70112 8.00123C4.70112 9.89226 6.23534 11.4264 8.12627 11.4264C10.0173 11.4264 11.5514 9.89226 11.5514 8.00123C11.5514 6.11019 10.0173 4.57607 8.12627 4.57607ZM8.12627 10.223C6.89953 10.223 5.90446 9.22807 5.90446 8.00123C5.90446 6.77438 6.89953 5.77941 8.12627 5.77941C9.35311 5.77941 10.3481 6.77438 10.3481 8.00123C10.3481 9.22807 9.35311 10.223 8.12627 10.223Z" fill="white"/>
<path d="M12.4866 4.44065C12.4866 4.88223 12.1285 5.24027 11.6869 5.24027C11.2453 5.24027 10.8872 4.88223 10.8872 4.44065C10.8872 3.99898 11.2453 3.64103 11.6869 3.64103C12.1285 3.64103 12.4866 3.99898 12.4866 4.44065Z" fill="white"/>
</g>
</g>
</svg>
