<svg width="10" height="10" viewBox="0 0 10 10" fill="none" xmlns="http://www.w3.org/2000/svg">
<g id="ruble-currency-sign 3" clip-path="url(#clip0_2802_62)">
<rect width="10" height="10" fill="white"/>
<g id="Group">
<g id="Group_2">
<path id="Vector" d="M0.681956 8.40895H2.27289V9.77276C2.27289 9.83912 2.29412 9.89344 2.33684 9.9359C2.37943 9.97863 2.43389 10 2.50023 10H3.68625C3.7478 10 3.80106 9.97863 3.84605 9.9359C3.89104 9.89344 3.91346 9.8391 3.91346 9.77276V8.40895H7.5001C7.5663 8.40895 7.62078 8.38785 7.66347 8.34512C7.7062 8.30242 7.72742 8.24806 7.72742 8.18171V7.27258C7.72742 7.20662 7.7062 7.15191 7.66347 7.10945C7.62089 7.06671 7.5663 7.04534 7.5001 7.04534H3.91335V6.20724H6.32812C7.27504 6.20724 8.04788 5.9187 8.64701 5.34081C9.2459 4.76352 9.54549 4.0178 9.54549 3.10362C9.54549 2.19004 9.2459 1.44431 8.64701 0.866431C8.048 0.289124 7.27502 0 6.32812 0H2.50011C2.43375 0 2.37942 0.0213476 2.33672 0.0638272C2.29412 0.106542 2.27278 0.161234 2.27278 0.227218V4.69465H0.681956C0.615619 4.69465 0.56126 4.7171 0.518565 4.76207C0.475988 4.80706 0.45462 4.86032 0.45462 4.92185V5.97998C0.45462 6.04634 0.47585 6.1007 0.518565 6.14339C0.56128 6.18613 0.615502 6.20722 0.681956 6.20722H2.27289V7.04532H0.681956C0.615619 7.04532 0.56126 7.06669 0.518565 7.10943C0.475988 7.15189 0.45462 7.20648 0.45462 7.27256V8.18169C0.45462 8.24804 0.47585 8.3024 0.518565 8.3451C0.56126 8.38785 0.6156 8.40895 0.681956 8.40895ZM3.91335 1.51294H6.18607C6.68791 1.51294 7.09267 1.65967 7.40054 1.95322C7.70824 2.24679 7.86217 2.63044 7.86217 3.10374C7.86217 3.57727 7.70824 3.96103 7.40054 4.25425C7.09267 4.54806 6.68789 4.69479 6.18607 4.69479H3.91335V1.51294Z" fill="#949981"/>
</g>
</g>
</g>
<defs>
<clipPath id="clip0_2802_62">
<rect width="10" height="10" fill="white"/>
</clipPath>
</defs>
</svg>
