<svg width="14" height="14" viewBox="0 0 14 14" fill="none" xmlns="http://www.w3.org/2000/svg">
<g id="ruble-currency-sign 2" clip-path="url(#clip0_2802_57)">
<g id="Group">
<g id="Group_2">
<path id="Vector" d="M0.954714 11.7725H3.18203V13.6819C3.18203 13.7748 3.21175 13.8508 3.27155 13.9103C3.33118 13.9701 3.40742 14 3.50029 14H5.16072C5.24689 14 5.32146 13.9701 5.38445 13.9103C5.44743 13.8508 5.47883 13.7747 5.47883 13.6819V11.7725H10.5001C10.5928 11.7725 10.6691 11.743 10.7288 11.6832C10.7887 11.6234 10.8184 11.5473 10.8184 11.4544V10.1816C10.8184 10.0893 10.7887 10.0127 10.7288 9.95322C10.6692 9.89339 10.5928 9.86348 10.5001 9.86348H5.47866V8.69013H8.85934C10.185 8.69013 11.267 8.28618 12.1058 7.47713C12.9442 6.66893 13.3637 5.62492 13.3637 4.34507C13.3637 3.06606 12.9442 2.02203 12.1058 1.213C11.2672 0.404774 10.185 0 8.85934 0H3.50013C3.40723 0 3.33116 0.0298867 3.27138 0.0893581C3.21175 0.149159 3.18186 0.225728 3.18186 0.318105V6.57252H0.954714C0.861843 6.57252 0.78574 6.60394 0.725967 6.6669C0.666358 6.72988 0.636444 6.80445 0.636444 6.89059V8.37197C0.636444 8.46487 0.666166 8.54097 0.725967 8.60075C0.785768 8.66058 0.861678 8.69011 0.954714 8.69011H3.18203V9.86345H0.954714C0.861843 9.86345 0.78574 9.89337 0.725967 9.9532C0.666358 10.0126 0.636444 10.0891 0.636444 10.1816V11.4544C0.636444 11.5473 0.666166 11.6234 0.725967 11.6831C0.78574 11.743 0.861815 11.7725 0.954714 11.7725ZM5.47866 2.11811H8.66048C9.36305 2.11811 9.92972 2.32353 10.3607 2.73451C10.7915 3.14551 11.007 3.68262 11.007 4.34523C11.007 5.00817 10.7915 5.54545 10.3607 5.95596C9.92972 6.36729 9.36302 6.57271 8.66048 6.57271H5.47866V2.11811Z" fill="#28553F"/>
</g>
</g>
</g>
<defs>
<clipPath id="clip0_2802_57">
<rect width="14" height="14" fill="white"/>
</clipPath>
</defs>
</svg>
